<svg height="511pt" viewBox="1 1 511.99951 511" width="511pt" xmlns="http://www.w3.org/2000/svg"><path d="m437.996094 179.496094h-181.996094c-8.285156 0-15-6.714844-15-15v-120c0-8.28125 6.714844-15 15-15h181.996094c4.027344 0 7.882812 1.621094 10.703125 4.492187l59.003906 60.085938c5.734375 5.84375 5.726563 15.203125-.015625 21.035156l-59.003906 59.914063c-2.820313 2.863281-6.667969 4.472656-10.6875 4.472656zm0 0" fill="#00dd7b"/><path d="m256 295.496094h-181.996094c-4.027344 0-7.882812-1.617188-10.703125-4.488282l-59.003906-60.066406c-5.734375-5.839844-5.730469-15.203125.015625-21.035156l59.003906-59.933594c2.816406-2.863281 6.667969-4.476562 10.6875-4.476562h181.996094c8.285156 0 15 6.714844 15 15v120c0 8.285156-6.714844 15-15 15zm0 0" fill="#ff415b"/><path d="m256 392.492188c-8.285156 0-15-6.714844-15-15v-361.992188c0-8.285156 6.714844-15 15-15s15 6.714844 15 15v361.992188c0 8.285156-6.714844 15-15 15zm0 0" fill="#00429b"/><path d="m256 .5v391.992188c8.285156 0 15-6.714844 15-15v-361.992188c0-8.285156-6.714844-15-15-15zm0 0" fill="#002659"/><path d="m256 507.496094c-24.8125 0-45-20.183594-45-45v-55c0-24.8125 20.1875-45 45-45s45 20.1875 45 45v55c0 24.816406-20.1875 45-45 45zm0 0" fill="#00f7ff"/><path d="m256 362.496094v145c24.8125 0 45-20.183594 45-45v-55c0-24.8125-20.1875-45-45-45zm0 0" fill="#27d8f6"/><path d="m151 452.5h210c24.851562 0 45 20.144531 45 45 0 8.28125-6.714844 15-15 15h-270c-8.285156 0-15-6.71875-15-15 0-24.855469 20.148438-45 45-45zm0 0" fill="#3aaaff"/><path d="m361 452.5h-105v60h135c8.285156 0 15-6.71875 15-15 0-24.855469-20.148438-45-45-45zm0 0" fill="#008adf"/></svg>