<?xml version="1.0" encoding="utf-8"?>
<!-- Generator: Adobe Illustrator 23.0.2, SVG Export Plug-In . SVG Version: 6.00 Build 0)  -->
<svg version="1.1" id="Layer_1" xmlns="http://www.w3.org/2000/svg" xmlns:xlink="http://www.w3.org/1999/xlink" x="0px" y="0px"
	 viewBox="0 0 464 464" style="enable-background:new 0 0 464 464;" xml:space="preserve">
<style type="text/css">
	.st0{fill:#005E9C;}
	.st1{fill:#168FBA;}
	.st2{fill:#FECF2C;}
</style>
<path class="st0" d="M379.5,283.3L379.5,283.3c41.2-79.4,25.2-180.2-38-239.1c-63.2-58.9-155.3-58.9-218.5,0
	C59.8,103.1,43.8,203.9,85,283.3l0.2,0.3c4,7.6,8.4,14.8,13.2,21.7L205.8,447h0.1c7.6,8.5,10.8,17,26.5,17s22.3-12.3,26.5-17h0.1
	l107.5-142.5c4.6-6.5,8.7-13.4,12.5-20.5L379.5,283.3z"/>
<path class="st1" d="M372.5,179.1c0,77.5-62.8,140.3-140.3,140.3S92,256.6,92,179.1S154.8,38.9,232.2,38.9S372.5,101.7,372.5,179.1z
	"/>
<path class="st2" d="M232,230.3l58.8,21.4l-1.7-63.8l38-50.6l-59.8-18L232,66.6l-35.3,52.6l-59.8,18l38,50.6l-1.7,63.8L232,230.3z"
	/>
</svg>
