<?xml version="1.0" encoding="utf-8"?>
<!-- Generator: Adobe Illustrator 23.0.2, SVG Export Plug-In . SVG Version: 6.00 Build 0)  -->
<svg version="1.1" id="Layer_1" focusable="false" xmlns="http://www.w3.org/2000/svg" xmlns:xlink="http://www.w3.org/1999/xlink"
	 x="0px" y="0px" viewBox="0 0 512 512" style="enable-background:new 0 0 512 512;" xml:space="preserve">
<style type="text/css">
	.st0{fill:#FFFFFF;}
</style>
<path class="st0" d="M109.5,244L244,109.5l-44.1-44.1L138.2,127c-3.1,3.1-8.1,3.1-11.2,0c0,0,0,0,0,0l-11.2-11.2
	c-3.1-3.1-3.1-8.1,0-11.2l61.7-61.7L143.9,9.3C131.5-3.1,111.4-3.1,99,9.3L9.3,99c-12.4,12.4-12.4,32.5,0,44.9L109.5,244L109.5,244z
	 M497.9,127.2c18.8-18.8,18.8-49.2,0-67.9l-45.3-45.3c-18.8-18.8-49.2-18.8-68,0l-46,46l113.2,113.2L497.9,127.2L497.9,127.2z
	 M316.1,82.7l-297,297L0.3,487.1c-2.5,14.5,10.1,27.1,24.6,24.6l107.4-18.8l296.9-296.9L316.1,82.7z M502.7,368.1l-33.6-33.6
	l-61.7,61.7c-3.1,3.1-8.1,3.1-11.2,0L385,385c-3.1-3.1-3.1-8.1,0-11.2l61.7-61.7l-44.1-44.1L267.9,402.5l100.2,100.2
	c12.4,12.4,32.5,12.4,44.9,0l89.7-89.7C515.1,400.6,515.1,380.5,502.7,368.1L502.7,368.1z"/>
</svg>
